<?xml version="1.0" encoding="UTF-8" standalone="no"?>
<!DOCTYPE svg PUBLIC "-//W3C//DTD SVG 1.1//EN" "http://www.w3.org/Graphics/SVG/1.1/DTD/svg11.dtd">
<svg width="100%" height="100%" viewBox="0 0 1024 1024" version="1.1" xmlns="http://www.w3.org/2000/svg" xmlns:xlink="http://www.w3.org/1999/xlink" xml:space="preserve" xmlns:serif="http://www.serif.com/" style="fill-rule:evenodd;clip-rule:evenodd;stroke-linejoin:round;stroke-miterlimit:2;">
    <g transform="matrix(1.01108,0.0252482,-0.0219008,0.877029,-67.168,-12.2051)">
        <g id="_6" serif:id="6">
            <path id="_61" serif:id="6" d="M640.761,774.944C705.692,774.944 752.953,723.405 752.953,652.231C752.953,585.23 710.588,535.654 651.831,535.654C610.106,535.654 579.024,560.688 566.677,592.839L565.825,592.839L565.825,589.648C567.103,503.258 593.926,453.191 642.039,453.191C666.308,453.191 683.764,464.481 698.241,489.024C705.905,501.54 712.078,506.694 721.658,506.694C734.219,506.694 742.521,497.123 742.521,484.115C742.521,477.243 740.818,470.862 737.412,463.745C721.02,429.631 686.106,407.051 642.464,407.051C565.612,407.051 520.055,477.243 520.055,595.784C520.055,635.297 525.377,668.184 536.234,695.672C556.458,746.966 593.713,774.944 640.761,774.944ZM640.123,728.559C603.719,728.559 575.192,695.181 575.192,652.968C575.192,611 603.08,580.322 640.761,580.322C678.442,580.322 705.479,611.245 705.479,654.195C705.479,695.672 676.739,728.559 640.123,728.559Z" style="fill:rgb(235,40,39);fill-rule:nonzero;"/>
        </g>
    </g>
    <g id="Pin" transform="matrix(2.44273,0,0,2.44273,-357.277,-704.889)">
        <g transform="matrix(2.47368,0,0,2.8125,-422.693,-812.65)">
            <ellipse cx="287.5" cy="465" rx="9.5" ry="8" style="fill:url(#_Radial1);"/>
        </g>
        <g transform="matrix(1.1,0,0,1,-11.8092,20.6621)">
            <path d="M273,535.825L273,555L268,525.5L273,496L273,515.175C273,515.175 273,496 273,496L278,525.5L273,555C273,555 273,535.825 273,535.825Z" style="fill:url(#_Radial2);"/>
        </g>
        <g transform="matrix(1.57143,0,0,1.37661,-86.2949,-172.641)">
            <rect x="235" y="500" width="7" height="22" style="fill:url(#_Radial3);"/>
        </g>
    </g>
    <defs>
        <radialGradient id="_Radial1" cx="0" cy="0" r="1" gradientUnits="userSpaceOnUse" gradientTransform="matrix(9.5,0,0,8.35556,287.5,465)"><stop offset="0" style="stop-color:rgb(212,77,77);stop-opacity:1"/><stop offset="0.54" style="stop-color:rgb(215,60,69);stop-opacity:1"/><stop offset="1" style="stop-color:rgb(226,0,40);stop-opacity:1"/></radialGradient>
        <radialGradient id="_Radial2" cx="0" cy="0" r="1" gradientUnits="userSpaceOnUse" gradientTransform="matrix(5,0,0,30.8111,273,525.5)"><stop offset="0" style="stop-color:rgb(212,77,77);stop-opacity:1"/><stop offset="0.54" style="stop-color:rgb(215,60,69);stop-opacity:1"/><stop offset="1" style="stop-color:rgb(226,0,40);stop-opacity:1"/></radialGradient>
        <radialGradient id="_Radial3" cx="0" cy="0" r="1" gradientUnits="userSpaceOnUse" gradientTransform="matrix(3.5,0,0,11.4889,238.5,511)"><stop offset="0" style="stop-color:rgb(212,77,77);stop-opacity:1"/><stop offset="0.54" style="stop-color:rgb(215,60,69);stop-opacity:1"/><stop offset="1" style="stop-color:rgb(226,0,40);stop-opacity:1"/></radialGradient>
    </defs>
</svg>
